<mxfile host="Electron" agent="Mozilla/5.0 (Windows NT 10.0; Win64; x64) AppleWebKit/537.36 (KHTML, like Gecko) draw.io/24.7.5 Chrome/126.0.6478.183 Electron/31.3.0 Safari/537.36" version="24.7.5">
  <diagram name="Страница — 1" id="wi7aKD_4erOyHrj6TKSx">
    <mxGraphModel dx="794" dy="511" grid="1" gridSize="10" guides="1" tooltips="1" connect="1" arrows="1" fold="1" page="1" pageScale="1" pageWidth="827" pageHeight="1169" math="0" shadow="0">
      <root>
        <mxCell id="0" />
        <mxCell id="1" parent="0" />
        <mxCell id="Jx2_3xveDHQ-atTdmp-k-2" value="START" style="rounded=1;whiteSpace=wrap;html=1;" vertex="1" parent="1">
          <mxGeometry x="320" y="40" width="120" height="40" as="geometry" />
        </mxCell>
        <mxCell id="Jx2_3xveDHQ-atTdmp-k-3" value="x (int)&lt;div&gt;&quot;Enter a number &quot;&lt;/div&gt;" style="shape=card;whiteSpace=wrap;html=1;" vertex="1" parent="1">
          <mxGeometry x="320" y="120" width="120" height="40" as="geometry" />
        </mxCell>
        <mxCell id="Jx2_3xveDHQ-atTdmp-k-15" style="edgeStyle=orthogonalEdgeStyle;rounded=0;orthogonalLoop=1;jettySize=auto;html=1;entryX=0.5;entryY=0;entryDx=0;entryDy=0;" edge="1" parent="1" source="Jx2_3xveDHQ-atTdmp-k-4" target="Jx2_3xveDHQ-atTdmp-k-5">
          <mxGeometry relative="1" as="geometry" />
        </mxCell>
        <mxCell id="Jx2_3xveDHQ-atTdmp-k-4" value="y (int)&lt;div&gt;&quot;Enter a number &quot;&lt;/div&gt;" style="shape=card;whiteSpace=wrap;html=1;" vertex="1" parent="1">
          <mxGeometry x="320" y="200" width="120" height="40" as="geometry" />
        </mxCell>
        <mxCell id="Jx2_3xveDHQ-atTdmp-k-5" value="x&amp;gt;y" style="rhombus;whiteSpace=wrap;html=1;" vertex="1" parent="1">
          <mxGeometry x="340" y="280" width="80" height="80" as="geometry" />
        </mxCell>
        <mxCell id="Jx2_3xveDHQ-atTdmp-k-6" value="&lt;div&gt;print (y)&lt;/div&gt;print (x)" style="shape=document;whiteSpace=wrap;html=1;boundedLbl=1;" vertex="1" parent="1">
          <mxGeometry x="480" y="400" width="80" height="50" as="geometry" />
        </mxCell>
        <mxCell id="Jx2_3xveDHQ-atTdmp-k-7" value="print (x)&lt;div&gt;print (y)&lt;/div&gt;" style="shape=document;whiteSpace=wrap;html=1;boundedLbl=1;" vertex="1" parent="1">
          <mxGeometry x="200" y="400" width="80" height="50" as="geometry" />
        </mxCell>
        <mxCell id="Jx2_3xveDHQ-atTdmp-k-8" value="no" style="endArrow=classic;html=1;rounded=0;entryX=0.5;entryY=0;entryDx=0;entryDy=0;exitX=0;exitY=1;exitDx=0;exitDy=0;" edge="1" parent="1" source="Jx2_3xveDHQ-atTdmp-k-5" target="Jx2_3xveDHQ-atTdmp-k-7">
          <mxGeometry width="50" height="50" relative="1" as="geometry">
            <mxPoint x="320" y="360" as="sourcePoint" />
            <mxPoint x="360" y="340" as="targetPoint" />
          </mxGeometry>
        </mxCell>
        <mxCell id="Jx2_3xveDHQ-atTdmp-k-9" value="yes" style="endArrow=classic;html=1;rounded=0;entryX=0.5;entryY=0;entryDx=0;entryDy=0;" edge="1" parent="1" source="Jx2_3xveDHQ-atTdmp-k-5" target="Jx2_3xveDHQ-atTdmp-k-6">
          <mxGeometry width="50" height="50" relative="1" as="geometry">
            <mxPoint x="430" y="390" as="sourcePoint" />
            <mxPoint x="480" y="340" as="targetPoint" />
          </mxGeometry>
        </mxCell>
        <mxCell id="Jx2_3xveDHQ-atTdmp-k-10" value="STOP" style="rounded=1;whiteSpace=wrap;html=1;" vertex="1" parent="1">
          <mxGeometry x="320" y="480" width="120" height="40" as="geometry" />
        </mxCell>
        <mxCell id="Jx2_3xveDHQ-atTdmp-k-11" value="" style="endArrow=classic;html=1;rounded=0;exitX=0.5;exitY=0.947;exitDx=0;exitDy=0;exitPerimeter=0;entryX=0;entryY=0.5;entryDx=0;entryDy=0;" edge="1" parent="1" source="Jx2_3xveDHQ-atTdmp-k-7" target="Jx2_3xveDHQ-atTdmp-k-10">
          <mxGeometry width="50" height="50" relative="1" as="geometry">
            <mxPoint x="240" y="510" as="sourcePoint" />
            <mxPoint x="290" y="460" as="targetPoint" />
          </mxGeometry>
        </mxCell>
        <mxCell id="Jx2_3xveDHQ-atTdmp-k-12" value="" style="endArrow=classic;html=1;rounded=0;exitX=0.467;exitY=0.973;exitDx=0;exitDy=0;exitPerimeter=0;entryX=1;entryY=0.5;entryDx=0;entryDy=0;" edge="1" parent="1" source="Jx2_3xveDHQ-atTdmp-k-6" target="Jx2_3xveDHQ-atTdmp-k-10">
          <mxGeometry width="50" height="50" relative="1" as="geometry">
            <mxPoint x="470" y="473.5" as="sourcePoint" />
            <mxPoint x="550" y="526.5" as="targetPoint" />
          </mxGeometry>
        </mxCell>
        <mxCell id="Jx2_3xveDHQ-atTdmp-k-13" style="edgeStyle=orthogonalEdgeStyle;rounded=0;orthogonalLoop=1;jettySize=auto;html=1;entryX=0.5;entryY=0;entryDx=0;entryDy=0;entryPerimeter=0;" edge="1" parent="1" source="Jx2_3xveDHQ-atTdmp-k-2" target="Jx2_3xveDHQ-atTdmp-k-3">
          <mxGeometry relative="1" as="geometry" />
        </mxCell>
        <mxCell id="Jx2_3xveDHQ-atTdmp-k-14" style="edgeStyle=orthogonalEdgeStyle;rounded=0;orthogonalLoop=1;jettySize=auto;html=1;entryX=0.5;entryY=0;entryDx=0;entryDy=0;entryPerimeter=0;" edge="1" parent="1" source="Jx2_3xveDHQ-atTdmp-k-3" target="Jx2_3xveDHQ-atTdmp-k-4">
          <mxGeometry relative="1" as="geometry" />
        </mxCell>
      </root>
    </mxGraphModel>
  </diagram>
</mxfile>
